<?xml version="1.0" encoding="UTF-8"?><svg id="_9" xmlns="http://www.w3.org/2000/svg" viewBox="0 0 500 500"><path d="M244.36,304.01h-68.45c0,16.81.14,32.77-.03,48.73-.25,21.92.24,43.91-1.32,65.74-3.47,48.81-30.9,75.8-79.94,80.13-6.76.6-13.55.87-21.7,1.38v-51.84c1.54-.48,3.7-1.51,5.95-1.79,31.31-3.79,39.74-12.97,39.84-44.07.11-32.51.02-65.02.02-98.82h-46.04v-47.93h352.59v238.96h-55.6v-190.3h-68.45v190.25h-56.87v-190.46Z"/><path d="M102.73,243.4v-55.67c34.9-4.44,49.71-30.37,58.47-60.28,7.43-25.41,11.69-51.74,17.76-79.55h-75.84V0h290.17c5.58,24.19-2.32,54.95-24.74,94.36,9.12.59,17.31,1.12,25.25,1.63,12.91,88.71-62.75,152.22-170.13,142.87v-48.24c8.26,0,16.93.95,25.3-.2,16.2-2.23,33.08-3.41,48.15-9.08,25.28-9.51,34.7-31.72,39.22-59.01-34.33,20.05-69.98,22.87-106.3,21.08-10.44-.51-15.37,2.92-19,12.83-10.21,27.82-25.1,52.8-50.17,70.08-17.19,11.85-36.15,18.24-58.15,17.08ZM229.25,93.5c42.15,6.97,96.79-7.59,102.35-46.13-29.25,0-58.39-.2-87.52.27-3.26.05-8.79,3.42-9.3,6.03-2.57,13.16-3.82,26.58-5.52,39.83Z"/></svg>